<svg width="320" height="320" viewBox="0 0 320 320" fill="none" xmlns="http://www.w3.org/2000/svg">
<path d="M58.1767 261.823C33.1832 236.83 33.1832 196.307 58.1767 171.314L103.431 126.059L193.941 216.569L148.686 261.823C123.693 286.817 83.1703 286.817 58.1767 261.823V261.823Z" fill="#1877F2"/>
<path d="M171.313 58.1768C196.307 33.1832 236.83 33.1833 261.823 58.1768L216.568 103.432L171.313 58.1768Z" fill="#F7D046"/>
<path d="M193.94 171.314C206.437 158.817 226.698 158.817 239.195 171.314L216.568 193.942L193.94 171.314Z" fill="#1877F2"/>
<path d="M261.823 58.1766C286.817 83.1702 286.817 123.693 261.823 148.686L216.568 103.431L261.823 58.1766Z" fill="#0C6F71"/>
<rect x="171.313" y="103.432" width="32" height="32" transform="rotate(45 171.313 103.432)" fill="#050517"/>
<rect x="216.567" y="103.432" width="32" height="32" rx="16" transform="rotate(45 216.567 103.432)" fill="#0C6F71"/>
<rect x="171.313" y="148.686" width="32" height="32" rx="16" transform="rotate(45 171.313 148.686)" fill="#F7D046"/>
<path d="M171.313 103.432L148.686 80.8042L171.313 58.1768C183.81 70.6736 183.81 90.9349 171.313 103.432Z" fill="#1877F2"/>
</svg>
