<svg width="320" height="320" viewBox="0 0 320 320" fill="none" xmlns="http://www.w3.org/2000/svg">
<path d="M95 52L95 116L31 116C31 80.651 59.651 52 95 52Z" fill="#1877F2"/>
<path d="M31 116L95 116L95 180C59.651 180 31 151.349 31 116Z" fill="#F7D046"/>
<path d="M221.451 205.777L159.225 268.002L97 205.777C131.369 171.408 187.082 171.408 221.451 205.777Z" fill="#0C6F71"/>
<path d="M223 180L223 116L287 116C287 151.349 258.349 180 223 180Z" fill="#F7D046"/>
<path d="M159 116H95V52C130.349 52 159 80.651 159 116Z" fill="#0C6F71"/>
<path d="M287 116H223V52C258.349 52 287 80.651 287 116Z" fill="#1877F2"/>
<path d="M223 52V116H159C159 80.651 187.651 52 223 52Z" fill="#0C6F71"/>
<rect x="96" y="116" width="128" height="64" rx="32" fill="#1877F2"/>
</svg>
