<svg width="320" height="320" viewBox="0 0 320 320" fill="none" xmlns="http://www.w3.org/2000/svg">
<circle cx="160" cy="220" r="20" fill="#1877F2"/>
<path d="M220 20L220 60L260 60C260 37.9069 242.093 20 220 20Z" fill="#F7D046"/>
<path d="M260 260H220V300C242.093 300 260 282.093 260 260Z" fill="#1877F2"/>
<path d="M100 300L100 260L60 260C60 282.093 77.9069 300 100 300Z" fill="#F7D046"/>
<path d="M100 220L60 220L60 260C82.0931 260 100 242.093 100 220Z" fill="#0C6F71"/>
<path d="M260 100L260 60L220 60C220 82.0931 237.907 100 260 100Z" fill="#050517"/>
<rect x="100" y="20" width="120" height="40" rx="20" fill="#1877F2"/>
<rect x="100" y="260" width="120" height="40" fill="#050517"/>
<path d="M100 20L100 60L60 60C60 37.9069 77.9069 20 100 20Z" fill="#050517"/>
<rect x="60" y="60" width="40" height="160" rx="20" fill="#F7D046"/>
<rect x="220" y="100" width="40" height="160" fill="#0C6F71"/>
</svg>
