<svg width="320" height="320" viewBox="0 0 320 320" fill="none" xmlns="http://www.w3.org/2000/svg">
<path d="M195.026 80.83L131.826 80.83L131.826 144.03C166.733 144.03 195.026 115.737 195.026 80.83Z" fill="#0C6F71"/>
<path d="M195.466 80.8303L258.666 80.8303L258.666 144.03C223.759 144.03 195.466 115.737 195.466 80.8303Z" fill="#1877F2"/>
<path d="M258.666 144.47L258.666 207.67L195.466 207.67C195.466 172.763 223.759 144.47 258.666 144.47Z" fill="#050517"/>
<path d="M131.826 144.47L131.826 207.67L195.026 207.67C195.026 172.763 166.734 144.47 131.826 144.47Z" fill="#F7D046"/>
<path d="M131.737 242.989L131.737 277.737L96.9893 277.737C96.9893 258.545 112.545 242.989 131.737 242.989Z" fill="#0C6F71"/>
<path d="M96.7474 208L62 208L62 242.747C81.192 242.747 96.7474 227.192 96.7474 208Z" fill="#050517"/>
<path d="M96.9894 208L131.737 208L131.737 242.748C112.545 242.748 96.9894 227.192 96.9894 208Z" fill="#F7D046"/>
<path d="M62.0001 242.99L62.0001 277.737L96.7476 277.737C96.7476 258.545 81.1921 242.99 62.0001 242.99Z" fill="#1877F2"/>
<path d="M131.743 61.9371L131.743 80.7434L112.937 80.7434C112.937 70.3561 121.356 61.9371 131.743 61.9371Z" fill="#1877F2"/>
<path d="M112.806 43.0001L94 43.0001L94 61.8064C104.387 61.8064 112.806 53.3873 112.806 43.0001Z" fill="#F7D046"/>
<path d="M112.937 43.0001L131.744 43.0001L131.744 61.8064C121.356 61.8064 112.937 53.3873 112.937 43.0001Z" fill="#050517"/>
<path d="M94.0003 61.9373L94.0003 80.7437L112.807 80.7437C112.807 70.3564 104.388 61.9373 94.0003 61.9373Z" fill="#0C6F71"/>
</svg>
