<svg id="visual" viewBox="0 0 1600 1200" width="1600" height="1200" xmlns="http://www.w3.org/2000/svg" xmlns:xlink="http://www.w3.org/1999/xlink" version="1.1"><rect x="0" y="0" width="1600" height="1200" fill="#FDC737"></rect><path d="M0 864L14.8 861C29.7 858 59.3 852 89 838.7C118.7 825.3 148.3 804.7 178 796.8C207.7 789 237.3 794 267 792C296.7 790 326.3 781 355.8 799.5C385.3 818 414.7 864 444.2 870.3C473.7 876.7 503.3 843.3 533 824.3C562.7 805.3 592.3 800.7 622 815.8C651.7 831 681.3 866 711 880.5C740.7 895 770.3 889 800 884.3C829.7 879.7 859.3 876.3 889 863.8C918.7 851.3 948.3 829.7 978 837.7C1007.7 845.7 1037.3 883.3 1067 889C1096.7 894.7 1126.3 868.3 1155.8 850.7C1185.3 833 1214.7 824 1244.2 813C1273.7 802 1303.3 789 1333 803.3C1362.7 817.7 1392.3 859.3 1422 862.5C1451.7 865.7 1481.3 830.3 1511 823.8C1540.7 817.3 1570.3 839.7 1585.2 850.8L1600 862L1600 1201L1585.2 1201C1570.3 1201 1540.7 1201 1511 1201C1481.3 1201 1451.7 1201 1422 1201C1392.3 1201 1362.7 1201 1333 1201C1303.3 1201 1273.7 1201 1244.2 1201C1214.7 1201 1185.3 1201 1155.8 1201C1126.3 1201 1096.7 1201 1067 1201C1037.3 1201 1007.7 1201 978 1201C948.3 1201 918.7 1201 889 1201C859.3 1201 829.7 1201 800 1201C770.3 1201 740.7 1201 711 1201C681.3 1201 651.7 1201 622 1201C592.3 1201 562.7 1201 533 1201C503.3 1201 473.7 1201 444.2 1201C414.7 1201 385.3 1201 355.8 1201C326.3 1201 296.7 1201 267 1201C237.3 1201 207.7 1201 178 1201C148.3 1201 118.7 1201 89 1201C59.3 1201 29.7 1201 14.8 1201L0 1201Z" fill="#fffcef"></path><path d="M0 932L14.8 933.3C29.7 934.7 59.3 937.3 89 931C118.7 924.7 148.3 909.3 178 902.7C207.7 896 237.3 898 267 905.2C296.7 912.3 326.3 924.7 355.8 932C385.3 939.3 414.7 941.7 444.2 929.5C473.7 917.3 503.3 890.7 533 884C562.7 877.3 592.3 890.7 622 909.2C651.7 927.7 681.3 951.3 711 956.2C740.7 961 770.3 947 800 938.2C829.7 929.3 859.3 925.7 889 913.3C918.7 901 948.3 880 978 883.2C1007.7 886.3 1037.3 913.7 1067 932.8C1096.7 952 1126.3 963 1155.8 960.3C1185.3 957.7 1214.7 941.3 1244.2 936.7C1273.7 932 1303.3 939 1333 935C1362.7 931 1392.3 916 1422 913.2C1451.7 910.3 1481.3 919.7 1511 926.2C1540.7 932.7 1570.3 936.3 1585.2 938.2L1600 940L1600 1201L1585.2 1201C1570.3 1201 1540.7 1201 1511 1201C1481.3 1201 1451.7 1201 1422 1201C1392.3 1201 1362.7 1201 1333 1201C1303.3 1201 1273.7 1201 1244.2 1201C1214.7 1201 1185.3 1201 1155.8 1201C1126.3 1201 1096.7 1201 1067 1201C1037.3 1201 1007.7 1201 978 1201C948.3 1201 918.7 1201 889 1201C859.3 1201 829.7 1201 800 1201C770.3 1201 740.7 1201 711 1201C681.3 1201 651.7 1201 622 1201C592.3 1201 562.7 1201 533 1201C503.3 1201 473.7 1201 444.2 1201C414.7 1201 385.3 1201 355.8 1201C326.3 1201 296.7 1201 267 1201C237.3 1201 207.7 1201 178 1201C148.3 1201 118.7 1201 89 1201C59.3 1201 29.7 1201 14.8 1201L0 1201Z" fill="#bbb9b0"></path><path d="M0 981L14.8 987C29.7 993 59.3 1005 89 1005.3C118.7 1005.7 148.3 994.3 178 989.5C207.7 984.7 237.3 986.3 267 996.3C296.7 1006.3 326.3 1024.7 355.8 1023.3C385.3 1022 414.7 1001 444.2 1001C473.7 1001 503.3 1022 533 1016C562.7 1010 592.3 977 622 976.2C651.7 975.3 681.3 1006.7 711 1008.8C740.7 1011 770.3 984 800 980C829.7 976 859.3 995 889 1009.3C918.7 1023.7 948.3 1033.3 978 1035.2C1007.7 1037 1037.3 1031 1067 1031.2C1096.7 1031.3 1126.3 1037.7 1155.8 1023.5C1185.3 1009.3 1214.7 974.7 1244.2 960.3C1273.7 946 1303.3 952 1333 959.8C1362.7 967.7 1392.3 977.3 1422 980.2C1451.7 983 1481.3 979 1511 983.5C1540.7 988 1570.3 1001 1585.2 1007.5L1600 1014L1600 1201L1585.2 1201C1570.3 1201 1540.7 1201 1511 1201C1481.3 1201 1451.7 1201 1422 1201C1392.3 1201 1362.7 1201 1333 1201C1303.3 1201 1273.7 1201 1244.2 1201C1214.7 1201 1185.3 1201 1155.8 1201C1126.3 1201 1096.7 1201 1067 1201C1037.3 1201 1007.7 1201 978 1201C948.3 1201 918.7 1201 889 1201C859.3 1201 829.7 1201 800 1201C770.3 1201 740.7 1201 711 1201C681.3 1201 651.7 1201 622 1201C592.3 1201 562.7 1201 533 1201C503.3 1201 473.7 1201 444.2 1201C414.7 1201 385.3 1201 355.8 1201C326.3 1201 296.7 1201 267 1201C237.3 1201 207.7 1201 178 1201C148.3 1201 118.7 1201 89 1201C59.3 1201 29.7 1201 14.8 1201L0 1201Z" fill="#7c7b75"></path><path d="M0 1045L14.8 1039.2C29.7 1033.3 59.3 1021.7 89 1017C118.7 1012.3 148.3 1014.7 178 1012.7C207.7 1010.7 237.3 1004.3 267 1008.5C296.7 1012.7 326.3 1027.3 355.8 1029.5C385.3 1031.7 414.7 1021.3 444.2 1014C473.7 1006.7 503.3 1002.3 533 1004.3C562.7 1006.3 592.3 1014.7 622 1027.7C651.7 1040.7 681.3 1058.3 711 1056.3C740.7 1054.3 770.3 1032.7 800 1031.2C829.7 1029.7 859.3 1048.3 889 1061.8C918.7 1075.3 948.3 1083.7 978 1085.5C1007.7 1087.3 1037.3 1082.7 1067 1080.3C1096.7 1078 1126.3 1078 1155.8 1068C1185.3 1058 1214.7 1038 1244.2 1026.2C1273.7 1014.3 1303.3 1010.7 1333 1010C1362.7 1009.3 1392.3 1011.7 1422 1013.5C1451.7 1015.3 1481.3 1016.7 1511 1022C1540.7 1027.3 1570.3 1036.7 1585.2 1041.3L1600 1046L1600 1201L1585.2 1201C1570.3 1201 1540.7 1201 1511 1201C1481.3 1201 1451.7 1201 1422 1201C1392.3 1201 1362.7 1201 1333 1201C1303.3 1201 1273.7 1201 1244.2 1201C1214.7 1201 1185.3 1201 1155.8 1201C1126.3 1201 1096.7 1201 1067 1201C1037.3 1201 1007.7 1201 978 1201C948.3 1201 918.7 1201 889 1201C859.3 1201 829.7 1201 800 1201C770.3 1201 740.7 1201 711 1201C681.3 1201 651.7 1201 622 1201C592.3 1201 562.7 1201 533 1201C503.3 1201 473.7 1201 444.2 1201C414.7 1201 385.3 1201 355.8 1201C326.3 1201 296.7 1201 267 1201C237.3 1201 207.7 1201 178 1201C148.3 1201 118.7 1201 89 1201C59.3 1201 29.7 1201 14.8 1201L0 1201Z" fill="#42423f"></path><path d="M0 1117L14.8 1117.5C29.7 1118 59.3 1119 89 1114.3C118.7 1109.7 148.3 1099.3 178 1097.2C207.7 1095 237.3 1101 267 1098C296.7 1095 326.3 1083 355.8 1081.2C385.3 1079.3 414.7 1087.7 444.2 1099.8C473.7 1112 503.3 1128 533 1125.7C562.7 1123.3 592.3 1102.7 622 1098.3C651.7 1094 681.3 1106 711 1118.2C740.7 1130.3 770.3 1142.7 800 1148.5C829.7 1154.3 859.3 1153.7 889 1149.7C918.7 1145.7 948.3 1138.3 978 1137.3C1007.7 1136.3 1037.3 1141.7 1067 1140.3C1096.7 1139 1126.3 1131 1155.8 1122.2C1185.3 1113.3 1214.7 1103.7 1244.2 1104.5C1273.7 1105.3 1303.3 1116.7 1333 1127.3C1362.7 1138 1392.3 1148 1422 1138.7C1451.7 1129.3 1481.3 1100.7 1511 1095.2C1540.7 1089.7 1570.3 1107.3 1585.2 1116.2L1600 1125L1600 1201L1585.2 1201C1570.3 1201 1540.7 1201 1511 1201C1481.3 1201 1451.7 1201 1422 1201C1392.3 1201 1362.7 1201 1333 1201C1303.3 1201 1273.7 1201 1244.2 1201C1214.7 1201 1185.3 1201 1155.8 1201C1126.3 1201 1096.7 1201 1067 1201C1037.3 1201 1007.7 1201 978 1201C948.3 1201 918.7 1201 889 1201C859.3 1201 829.7 1201 800 1201C770.3 1201 740.7 1201 711 1201C681.3 1201 651.7 1201 622 1201C592.3 1201 562.7 1201 533 1201C503.3 1201 473.7 1201 444.2 1201C414.7 1201 385.3 1201 355.8 1201C326.3 1201 296.7 1201 267 1201C237.3 1201 207.7 1201 178 1201C148.3 1201 118.7 1201 89 1201C59.3 1201 29.7 1201 14.8 1201L0 1201Z" fill="#0f0f0f"></path></svg>