<svg width="700" height="600" viewBox="0 0 700 600" fill="none" xmlns="http://www.w3.org/2000/svg">
    <!-- Base del Tronco -->
    <path d="M350 580 L350 500" stroke="#49546B" stroke-width="2.5"/>
    <path d="M330 580 L340 500" stroke="#49546B" stroke-width="2"/>
    <path d="M370 580 L360 500" stroke="#49546B" stroke-width="2"/>

    <!-- Ramas Principales del Tronco -->
    <path d="M350 500 L300 450 L250 400" stroke="#49546B" stroke-width="2"/>
    <path d="M350 500 L400 450 L450 400" stroke="#49546B" stroke-width="2"/>
    <path d="M350 500 L350 380" stroke="#49546B" stroke-width="2.2"/>

    <!-- Sub-Ramas Izquierda -->
    <path d="M250 400 L200 350 L180 300" stroke="#49546B" stroke-width="1.8"/>
    <path d="M250 400 L280 350 L300 300" stroke="#49546B" stroke-width="1.8"/>
    <path d="M180 300 L150 270 L130 220" stroke="#49546B" stroke-width="1.8"/>
    <path d="M180 300 L200 270 L220 230" stroke="#49546B" stroke-width="1.8"/>
    <path d="M200 350 L170 380" stroke="#49546B" stroke-width="1.8"/>
    <path d="M130 220 L100 180 L80 120" stroke="#49546B" stroke-width="1.8"/>
    <path d="M130 220 L150 180 L160 140" stroke="#49546B" stroke-width="1.8"/>

    <!-- Sub-Ramas Derecha -->
    <path d="M450 400 L500 350 L520 300" stroke="#49546B" stroke-width="1.8"/>
    <path d="M450 400 L420 350 L400 300" stroke="#49546B" stroke-width="1.8"/>
    <path d="M520 300 L550 270 L570 220" stroke="#49546B" stroke-width="1.8"/>
    <path d="M520 300 L500 270 L480 230" stroke="#49546B" stroke-width="1.8"/>
    <path d="M500 350 L530 380" stroke="#49546B" stroke-width="1.8"/>
    <path d="M570 220 L600 180 L620 120" stroke="#49546B" stroke-width="1.8"/>
    <path d="M570 220 L550 180 L540 140" stroke="#49546B" stroke-width="1.8"/>

    <!-- Sub-Ramas Centrales -->
    <path d="M350 380 L320 330 L300 280" stroke="#49546B" stroke-width="1.8"/>
    <path d="M350 380 L380 330 L400 280" stroke="#49546B" stroke-width="1.8"/>
    <path d="M300 280 L270 240 L250 190" stroke="#49546B" stroke-width="1.8"/>
    <path d="M400 280 L430 240 L450 190" stroke="#49546B" stroke-width="1.8"/>
    <path d="M300 280 L330 250 L350 200" stroke="#49546B" stroke-width="1.8"/>
    <path d="M350 200 L320 150 L300 100" stroke="#49546B" stroke-width="1.8"/>
    <path d="M350 200 L380 150 L400 100" stroke="#49546B" stroke-width="1.8"/>

    <!-- Nodos terminales y de unión (pequeños) -->
    <circle cx="350" cy="580" r="5" fill="#49546B"/>
    <circle cx="330" cy="580" r="4" fill="#49546B"/>
    <circle cx="370" cy="580" r="4" fill="#49546B"/>
    <circle cx="80" cy="120" r="4" fill="#49546B"/>
    <circle cx="160" cy="140" r="4" fill="#49546B"/>
    <circle cx="220" cy="230" r="4" fill="#49546B"/>
    <circle cx="170" cy="380" r="4" fill="#49546B"/>
    <circle cx="300" cy="300" r="3" fill="#49546B"/>
    <circle cx="250" cy="190" r="4" fill="#49546B"/>
    <circle cx="300" cy="100" r="4" fill="#49546B"/>
    <circle cx="400" cy="100" r="4" fill="#49546B"/>
    <circle cx="450" cy="190" r="4" fill="#49546B"/>
    <circle cx="400" cy="300" r="3" fill="#49546B"/>
    <circle cx="530" cy="380" r="4" fill="#49546B"/>
    <circle cx="480" cy="230" r="4" fill="#49546B"/>
    <circle cx="540" cy="140" r="4" fill="#49546B"/>
    <circle cx="620" cy="120" r="4" fill="#49546B"/>

    <!-- Puntos de union intermedios -->
    <circle cx="350" cy="500" r="3" fill="#49546B"/>
    <circle cx="250" cy="400" r="3" fill="#49546B"/>
    <circle cx="450" cy="400" r="3" fill="#49546B"/>
    <circle cx="350" cy="380" r="3" fill="#49546B"/>
    <circle cx="180" cy="300" r="3" fill="#49546B"/>
    <circle cx="200" cy="350" r="3" fill="#49546B"/>
    <circle cx="130" cy="220" r="3" fill="#49546B"/>
    <circle cx="520" cy="300" r="3" fill="#49546B"/>
    <circle cx="500" cy="350" r="3" fill="#49546B"/>
    <circle cx="570" cy="220" r="3" fill="#49546B"/>
    <circle cx="300" cy="280" r="3" fill="#49546B"/>
    <circle cx="400" cy="280" r="3" fill="#49546B"/>
    <circle cx="350" cy="200" r="3" fill="#49546B"/>


    <!-- Nodos Azules Grandes -->
    <circle cx="100" cy="250" r="11" class="circle" fill="#3047FD"/>
    <circle cx="100" cy="250" r="30" class="circle" fill="transparent" data-circle="var3_blue1" style="cursor:pointer;"/>
    <circle cx="100" cy="250" r="22" class="circle blue__opacity" style="pointer-events:none;" data-circle="var3_blue1"/>

    <circle cx="340" cy="300" r="11" class="circle" fill="#3047FD"/>
    <circle cx="340" cy="300" r="30" class="circle" fill="transparent" data-circle="var3_blue2" style="cursor:pointer;"/>
    <circle cx="340" cy="300" r="22" class="circle blue__opacity" style="pointer-events:none;" data-circle="var3_blue2"/>

    <circle cx="580" cy="280" r="11" class="circle" fill="#3047FD"/>
    <circle cx="580" cy="280" r="30" class="circle" fill="transparent" data-circle="var3_blue3" style="cursor:pointer;"/>
    <circle cx="580" cy="280" r="22" class="circle blue__opacity" style="pointer-events:none;" data-circle="var3_blue3"/>

    <circle cx="200" cy="150" r="11" class="circle" fill="#3047FD"/>
    <circle cx="200" cy="150" r="30" class="circle" fill="transparent" data-circle="var3_blue4" style="cursor:pointer;"/>
    <circle cx="200" cy="150" r="22" class="circle blue__opacity" style="pointer-events:none;" data-circle="var3_blue4"/>
    
    <circle cx="480" cy="100" r="11" class="circle" fill="#3047FD"/>
    <circle cx="480" cy="100" r="30" class="circle" fill="transparent" data-circle="var3_blue5" style="cursor:pointer;"/>
    <circle cx="480" cy="100" r="22" class="circle blue__opacity" style="pointer-events:none;" data-circle="var3_blue5"/>

    <!-- Nodos Naranja Grandes -->
    <circle cx="250" cy="320" r="11" class="circle" fill="#FDAB30"/>
    <circle cx="250" cy="320" r="30" class="circle" fill="transparent" data-circle="var3_orange1" style="cursor:pointer;"/>
    <circle cx="250" cy="320" r="22" class="circle yellow__opacity" style="pointer-events:none;" data-circle="var3_orange1"/>

    <circle cx="450" cy="320" r="11" class="circle" fill="#FDAB30"/>
    <circle cx="450" cy="320" r="30" class="circle" fill="transparent" data-circle="var3_orange2" style="cursor:pointer;"/>
    <circle cx="450" cy="320" r="22" class="circle yellow__opacity" style="pointer-events:none;" data-circle="var3_orange2"/>

    <circle cx="350" cy="120" r="11" class="circle" fill="#FDAB30"/>
    <circle cx="350" cy="120" r="30" class="circle" fill="transparent" data-circle="var3_orange3" style="cursor:pointer;"/>
    <circle cx="350" cy="120" r="22" class="circle yellow__opacity" style="pointer-events:none;" data-circle="var3_orange3"/>
    
    <circle cx="120" cy="50" r="11" class="circle" fill="#FDAB30"/>
    <circle cx="120" cy="50" r="30" class="circle" fill="transparent" data-circle="var3_orange4" style="cursor:pointer;"/>
    <circle cx="120" cy="50" r="22" class="circle yellow__opacity" style="pointer-events:none;" data-circle="var3_orange4"/>

    <circle cx="580" cy="60" r="11" class="circle" fill="#FDAB30"/>
    <circle cx="580" cy="60" r="30" class="circle" fill="transparent" data-circle="var3_orange5" style="cursor:pointer;"/>
    <circle cx="580" cy="60" r="22" class="circle yellow__opacity" style="pointer-events:none;" data-circle="var3_orange5"/>

</svg>