<svg width="350" height="150" viewBox="0 0 350 150" fill="none" xmlns="http://www.w3.org/2000/svg">
    <!-- Lineas principales -->
    <path d="M30 75 L80 75 Q100 75 100 55 L100 35" stroke="#49546B" stroke-width="1.8"/>
    <path d="M80 75 Q100 75 100 95 L100 115" stroke="#49546B" stroke-width="1.8"/>
    <path d="M80 75 L150 75" stroke="#49546B" stroke-width="1.8"/>
    <path d="M150 75 L170 45" stroke="#49546B" stroke-width="1.8"/>
    <path d="M150 75 L170 105" stroke="#49546B" stroke-width="1.8"/>
    <path d="M150 75 L220 75 Q240 75 240 55 L240 35" stroke="#49546B" stroke-width="1.8"/>
    <path d="M220 75 Q240 75 240 95 L240 115" stroke="#49546B" stroke-width="1.8"/>
    <path d="M220 75 L290 75 L320 75" stroke="#49546B" stroke-width="1.8"/>

    <!-- Nodos pequeños -->
    <circle cx="30" cy="75" r="4" fill="#49546B"/>
    <circle cx="100" cy="35" r="4" fill="#49546B"/>
    <circle cx="100" cy="115" r="4" fill="#49546B"/>
    <circle cx="170" cy="45" r="4" fill="#49546B"/>
    <circle cx="170" cy="105" r="4" fill="#49546B"/>
    <circle cx="240" cy="35" r="4" fill="#49546B"/>
    <circle cx="240" cy="115" r="4" fill="#49546B"/>
    <circle cx="320" cy="75" r="4" fill="#49546B"/>
    
    <circle cx="80" cy="75" r="3" fill="#49546B"/>
    <circle cx="150" cy="75" r="3" fill="#49546B"/>
    <circle cx="220" cy="75" r="3" fill="#49546B"/>
    <circle cx="290" cy="75" r="3" fill="#49546B"/>


    <!-- Nodo Azul Grande -->
    <circle cx="125" cy="75" r="11" class="circle" fill="#3047FD"/>
    <circle cx="125" cy="75" r="30" class="circle" fill="transparent" data-circle="var2_1" style="cursor:pointer;position:relative;z-index:3"/>
    <circle cx="125" cy="75" r="11" class="circle blue__opacity" style="cursor-pointer:none;pointer-events:none" data-circle="var2_1"/> <!-- r="11" para un efecto más sutil -->

    <!-- Nodo Naranja Grande -->
    <circle cx="265" cy="75" r="11" class="circle" fill="#FDAB30"/>
    <circle cx="265" cy="75" r="30" class="circle" fill="transparent" data-circle="var2_2" style="cursor:pointer;position:relative;z-index:3"/>
    <circle cx="265" cy="75" r="11" class="circle yellow__opacity" style="cursor-pointer:none;pointer-events:none" data-circle="var2_2"/> <!-- r="11" para un efecto más sutil -->

</svg>