<svg width="200" height="250" viewBox="0 0 200 250" fill="none" xmlns="http://www.w3.org/2000/svg">
    <!-- Lineas principales -->
    <path d="M100 230 L100 100" stroke="#49546B" stroke-width="1.8"/>
    <path d="M100 180 L60 150 L60 120" stroke="#49546B" stroke-width="1.8"/>
    <path d="M100 130 L140 100 L140 70" stroke="#49546B" stroke-width="1.8"/>
    <path d="M60 150 L80 130" stroke="#49546B" stroke-width="1.8"/>

    <!-- Nodos pequeños -->
    <circle cx="100" cy="230" r="4" fill="#49546B"/>
    <circle cx="60" cy="120" r="4" fill="#49546B"/>
    <circle cx="140" cy="70" r="4" fill="#49546B"/>
    <circle cx="80" cy="130" r="4" fill="#49546B"/>
    <circle cx="100" cy="180" r="3" fill="#49546B"/>
    <circle cx="100" cy="130" r="3" fill="#49546B"/>
    <circle cx="60" cy="150" r="3" fill="#49546B"/>
    <circle cx="140" cy="100" r="3" fill="#49546B"/>


    <!-- Nodo Naranja Grande -->
    <circle cx="100" cy="90" r="11" class="circle" fill="#FDAB30"/>
    <circle cx="100" cy="90" r="30" class="circle" fill="transparent" data-circle="var1_1" style="cursor:pointer;position:relative;z-index:3"/>
    <circle cx="100" cy="90" r="22" class="circle yellow__opacity" style="cursor-pointer:none;pointer-events:none" data-circle="var1_1"/>

    <!-- Nodo Azul Grande -->
    <circle cx="50" cy="170" r="11" class="circle" fill="#3047FD"/>
    <circle cx="50" cy="170" r="30" class="circle" fill="transparent" data-circle="var1_2" style="cursor:pointer;position:relative;z-index:3"/>
    <circle cx="50" cy="170" r="22" class="circle blue__opacity" style="cursor-pointer:none;pointer-events:none" data-circle="var1_2"/>
</svg>