<svg id="Capa_1" data-name="Capa 1" xmlns="http://www.w3.org/2000/svg" viewBox="0 0 908.37 1026.41"><defs><style>.cls-1{fill:none;stroke:#000;stroke-linecap:round;stroke-linejoin:round;stroke-width:2px;}</style></defs><path d="M442.87,1.86q.06,69.71.18,139.42c0,2.73-1.37,3.68-3.32,4.81-17,9.81-33.91,19.76-51,29.49-2.79,1.59-4,3.22-3.95,6.57q.24,37.23,0,74.47c0,3,.85,4.7,3.56,6.27q81.15,47,162.21,94.12a3.92,3.92,0,0,1,2.32,4.11c-.12,35.5-.08,71-.82,106.49-.6,28.12-.13,56.27,0,84.41,0,1.17,0,1.15-1,1.73C541,559.4,530.94,565.3,520.82,571c-1.8,1-1.94,2.39-1.94,4.14q0,69.5,0,139c0,1.72.15,3,2.08,4,3,1.56,3.63,4.46,1.61,7.18-1.86,2.53-4.69,2.73-7,.71-2.54-2.21-2.77-5.14,0-7.29,2.52-2,1.87-4.48,1.87-6.82q.08-59.25,0-118.5c0-5.33-.15-10.67.09-16,.17-3.8-.95-3.83-3.82-2.12q-25.11,14.88-50.34,29.58c-24.87,14.49-49.73,29-74.71,43.28-3.64,2.08-4.92,4.32-4.86,8.57.27,20,.12,40,.12,59.9,1.72.92,2.68-.36,3.71-1Q409.32,702.88,431,690c2.11-1.25,4.08-2.26,4.18-5.5s2.93-4.33,5.91-3.66a4.27,4.27,0,0,1,3.42,5.68c-.86,3-3,5.07-6.38,3.38-2-1-3.27-.54-5,.46-14.85,8.87-29.7,17.76-44.69,26.39-3.56,2-4.61,4.58-4.6,8.48.12,28,0,56,.13,84,0,3.21-.82,5.1-3.75,6.7-9.14,5-18.1,10.36-27.8,16,11.3,6.64,22.13,12.69,32.61,19.3,4.07,2.57,6.93,2.53,11.13.09Q474,805.95,552.05,761.13c3.13-1.79,4-3.75,4-7.09-.07-46.17,0-92.33-.1-138.5,0-4.08,1.4-6.15,4.82-8.12,22.62-13,45.07-26.31,67.68-39.33,2.84-1.63,3.93-3.36,3.94-6.61,0-17.38.38-34.77.38-52.15,0-3.27,1-5,3.87-6.64,15-8.49,30-17.2,44.93-25.84.55-.32,1-.73,2-1.43-9.27-5.31-18.15-10.41-27-15.48-12.85-7.34-25.67-14.75-38.61-21.91-2.39-1.32-3.11-2.67-3-5.31.17-4.14.92-8.33-3.09-11.81-1.91-1.65-1.7-5.31,1-7,2.19-1.42,2.61-3,2.63-5.35q.43-53.73,1-107.45c0-2.37-.78-3.51-2.75-4.64-32.87-18.84-65.33-38.38-98.35-57-5.87-3.3-11.61-6.88-18.28-11,0,8.65,0,16.48,0,24.32,0,13-.05,26-.15,39,0,2.29.28,3.9,2.62,5.26,16.7,9.65,33.29,19.48,49.88,29.31,1.67,1,2.95,1.47,4.9.34,3.41-2,5.79-.12,7.07,3s-.28,5.23-3,6.42c-3.26,1.4-6.27-.11-6.53-3.15-.38-4.46-3.51-5.5-6.37-7.19-15.32-9.05-30.59-18.17-46-27-3-1.7-3.61-3.61-3.6-6.72q.18-86,.18-172c0-9.16.14-18.33-.06-27.5-.07-3.09,1-4.72,3.68-6.25Q555,54.28,610.34,22c2.41-1.39,4.68-2.3,4.9-6,.17-2.77,3-4.32,6.09-3.47s4.78,3.09,4,6.38-3.82,5.25-6.4,3.69c-4.1-2.48-6.48,0-9.31,1.63Q555.66,55.54,501.74,86.83c-2.43,1.4-4,2.7-4,6-.08,43.33-.34,86.66-.55,130,0,.8.1,1.59.21,3.15,2.41-1.33,4.39-2.37,6.32-3.5,16.51-9.64,33-19.23,49.47-29,2.83-1.7,4.82-1.63,7.64.06q26.68,16.1,53.63,31.76c2.7,1.56,3.53,3.26,3.5,6.27-.13,19.5-.07,39-.07,58.5v5.6l34.28-19.82q40.34-23.34,80.68-46.68c1.78-1,2.82-1.67,2.42-4.44-.61-4.26,1.67-7.68,6.19-8.93s7.87.16,10.18,4.09,1.33,7.46-1.66,10.44c-3.26,3.24-7.47,3.8-10.81.9-2.73-2.37-4.46-1.52-6.79-.17q-55.86,32.42-111.75,64.73c-2.2,1.26-2.79,2.69-2.81,5.11q-.37,53.22-.93,106.46c0,2.55-.42,4.87,2.89,6.53s2.78,6-.42,8.86c-4.49,3.95-3.77,12.27,1.29,15.15,20.5,11.65,41,23.25,61.44,35.06,2.36,1.37,3.89,1.39,6.16.05,13.47-7.91,27.08-15.59,40.54-23.51,2.62-1.55,4.56-1.49,7.2,0q46.65,26.85,93.43,53.46c2,1.16,3.6,2.21,3.6,5.22-.12,36.66,0,73.33,0,110a19.94,19.94,0,0,1-.26,2.21c-5.36-2-9.86-5.18-14.55-7.9q-28.89-16.77-57.64-33.79c-2.24-1.34-3.45-1.33-5.49.31a10.26,10.26,0,0,1-13.64-1,10.4,10.4,0,0,1-1.59-13.25,10.56,10.56,0,0,1,12.67-4.18c5.15,1.94,8,6.47,6.74,11.79-.63,2.68.07,4,2.21,5.21q34,19.82,68,39.7a12.44,12.44,0,0,0,1.76.71c1.1-1.53.61-3.06.61-4.47,0-34.34,0-68.67.09-103,0-3.22-.87-5-3.75-6.63Q781.76,477.6,735.53,451c-1.69-1-3.1-2-5.41-.61-14.14,8.37-28.41,16.53-43.23,25.1,8.69,5,16.84,9.75,25,14.44,5.91,3.39,11.89,6.66,17.77,10.11,3.93,2.31,7.16,5,12.32,1.37,3.89-2.72,9.74.92,10.9,5.54,1.32,5.27-1.59,10.11-6.59,11-5.58,1-10.57-2.47-10.24-7.92.26-4.14-1.56-5.63-4.72-7.39Q710,490.74,689,478.34c-2.65-1.56-4.61-1.56-7.23,0q-21.93,12.87-44.07,25.41c-2.8,1.58-3.89,3.31-3.85,6.62.19,17.81.09,35.63.09,54.22,5.5-3.16,10.51-6,15.46-8.88,9.45-5.57,18.85-11.22,28.33-16.74,1.79-1,3.06-1.87,3.33-4.33.35-3.23,3-4.42,6-3.46s4,3.59,2.87,6.47-3.74,4.21-6.41,2.43c-2.22-1.48-3.59-.7-5.33.32q-20.85,12.27-41.75,24.46a4.37,4.37,0,0,0-2.51,4.32c.1,16.5.08,33,0,49.5,0,1.94.31,3.32,2.3,4.46q48,27.5,95.94,55.15a2.64,2.64,0,0,0,1,.14c1.1-.69.6-1.8.6-2.7q0-34.46,0-68.91c0-2.47.17-4.61-2.52-6.36-2.54-1.65-2.56-4.65-.42-7s4.94-2.21,7,.08,2.09,5.28-.48,7-2.4,3.59-2.4,5.92q0,74,0,147.94c0,2.54-.52,4.93,3,6.42,2.72,1.16,2.83,4.4,1,6.92a4.76,4.76,0,0,1-7,1.24c-2.77-1.88-3.46-5.34-1.06-7.28,3.12-2.54,2.75-5.45,2.76-8.5.08-23,0-46,.24-69,0-3.16-1.49-4.3-3.76-5.6-30.58-17.53-61.07-35.22-91.74-52.58-4.47-2.54-6.2-5.25-6.06-10.46.38-14.66.11-29.33.08-44,0-1.13-.12-2.25-.23-4L596.9,588.07c-11.78,6.87-23.52,13.81-35.37,20.57-2.56,1.46-3.74,3-3.74,6.18q.09,69.26-.17,138.5c0,4,1.3,6.19,4.8,8.17q60.06,34.07,119.9,68.53c2.68,1.55,4.21.66,6.22-.5l90.18-52.21c9.34-5.41,18.64-10.9,28.08-16.15,2.38-1.32,3.16-2.77,3.15-5.45q-.16-37,0-73.94c0-2.41-.32-3.71-3-4.63-5.85-2-8.26-6.8-7.07-12.58a10,10,0,0,1,9.59-8,10.6,10.6,0,0,1,11.09,8.14c1.26,5-1.31,10.26-6.73,12.45-2.36.95-2.87,2.08-2.85,4.34q.33,36.71.5,73.41c0,2.41.23,4.31,2.8,5.75q36.12,20.19,72,40.69c2.87,1.64,4.92,1.34,7.69-.23,4.55-2.57,8.61-6.16,13.92-7.29v1c-4.61,2.62-9.34,5.08-13.81,7.93-2.86,1.81-5.1,1.85-8.12.12-23.35-13.41-46.86-26.54-70.2-40-3.47-2-6-2-9.46,0-38.66,22.52-77.46,44.79-116.09,67.35-3.87,2.27-6.55,2.18-10.31,0-26.2-15.16-52.54-30.09-78.85-45.06-1.53-.87-2.93-2.21-5.31-2.06v21.25h-.58c0-6.17-.11-12.33.06-18.49.07-2.6-.53-4.25-3-5.63-11-6.21-22-12.51-32.78-19.06-2.68-1.63-4.34-.4-6.31.75-30.33,17.66-60.61,35.4-91,53-22.61,13.08-45.36,25.92-68,39-2.64,1.53-4.53,1.58-7.19,0-10.95-6.65-22.13-12.91-33.09-19.55-2.37-1.43-3.91-1.28-6.22,0-33.16,19.09-66,38.7-100.12,56.15-2.15,1.1-2.69,2.37-2.7,4.64,0,4.92-3,8.68-7.3,9.28s-7.47-1.26-9.42-5.07c-2-4-1-7.6,2.16-10.35,3.58-3.08,7.81-3.4,11.32-.12,2.44,2.28,4.07,1,6.1,0,24.92-12.67,49-26.93,73.24-40.73,9.24-5.25,18.42-10.59,27.61-15.88-.26-1.82-1.83-2-2.9-2.58q-61.14-35.88-122.39-71.62c-3.37-2-4.44-4-4.43-7.81q.17-90.51.07-181c0-1.17-.08-2.34,0-3.5.28-3.28-1-3.18-3.35-1.79q-18.3,10.74-36.68,21.33c-15,8.63-30.08,17.11-45.06,25.79-2.12,1.23-3.6,1.34-5.79,0q-40.77-24.26-81.7-48.25A6,6,0,0,1,43,557c.09-32.5.14-65,0-97.5,0-3.83,2.09-5.15,4.73-6.71,26.21-15.5,52.36-31.09,78.63-46.48,2.87-1.68,3.8-3.48,3.78-6.7-.14-22.5,0-45-.16-67.5,0-3.76.87-6.07,4.33-7.92s8.57-2.84,9-6.61c.19-1.63-5.84-4-9.1-6-6.86-4.09-13.85-8-20.57-12.27-2.82-1.8-4.88-1.61-7.68,0Q57.39,327.7,8.73,355.75a5,5,0,0,0-2.83,5.08c.16,9,.1,18,.07,27,0,2,.19,3.57,2.2,5,2.47,1.78,2.65,4.61.29,6.92a4.32,4.32,0,0,1-6.31.16c-2.35-2.11-2.51-4.87,0-6.92,1.84-1.51,2.05-3.15,2-5.21q-.06-28,0-56c0-1.82.06-3.31-1.88-4.65-2.74-1.9-3-4.81-.55-7.3a4.41,4.41,0,0,1,6.69-.1c2.47,2.43,2.28,5.24-.38,7.33a4.49,4.49,0,0,0-2.07,4.05C6,339,6,346.79,6,355.53c4.69-2.58,8.87-4.78,13-7.15q43.14-25.1,86.22-50.32c3.41-2,6-2.07,9.41.11,9.42,5.95,19.15,11.4,28.72,17.11,1.64,1,2.92,1.55,4.92.38,16.15-9.53,32.39-18.9,49.21-28.67l-28.61-17c-15-8.94-30-18-45.07-26.75-3.42-2-4.79-4.19-4.77-8.24.17-26.66,0-53.33.07-80,0-2.53-.08-4.52-2.69-6.23s-2.75-4.89-.39-7.35,5.22-2.38,7.52-.12,2.45,5.82-.24,7.4c-3.12,1.84-2.71,4.15-2.7,6.72.09,26.16.29,52.33.19,78.49,0,4.15,1.13,6.57,4.8,8.72,24.12,14.1,48.09,28.45,72.11,42.72.67.4,1.31.86,2.58,1.7l-52.06,30.32c.39,1.63,1.89,1.86,3,2.49,20.09,11.75,40.23,23.43,60.3,35.2,2.14,1.25,3.75,1.89,6.27.43q32.22-18.56,64.64-36.73c2.63-1.48,3.59-3.13,3.58-6.23-.11-25,.09-50-.06-75,0-3.41,1.25-5,3.94-6.5,14.74-8.39,29.4-16.93,44.08-25.42.43-.24.82-.54,1.75-1.16-10.7-6.22-20.84-12.13-31-18q-91.26-53-182.52-106c-2.41-1.4-4.34-2.92-7.58-1.06-2.38,1.36-4.93-.49-5.65-3.3s.25-5.44,3.44-6.15c2.76-.61,5.45.42,5.52,3.46s1.81,3.92,3.82,5.08q105.95,61.47,211.82,123c2.85,1.65,4.78,1.56,7.54-.08,12.86-7.65,25.87-15.05,38.83-22.54,1-.55,1.9-1.13,3.44-2-13.3-7.77-26-15.23-38.76-22.63Q306.32,132.07,268.11,110c-2.29-1.33-4.17-2.44-7.12-.5-3.68,2.42-7.47.89-10.22-2.32s-2.84-7.09-.52-10.61,6.2-4.52,10.16-3.29,6.38,4.27,5.44,8.37c-1.06,4.61,1.32,6.2,4.67,8.14q55.67,32.16,111.17,64.59c2.31,1.35,3.93,1.55,6.28.17q25.15-14.79,50.48-29.29c2.69-1.54,3.55-3.36,3.54-6.38q-.15-68.49-.12-137Zm24,542.29a11.12,11.12,0,0,0-1.51-1.3q-35.24-20.8-70.47-41.58a5.54,5.54,0,0,0-5.5-.6c-2.88,1.17-5.38-.19-6.2-3.26-.74-2.79.49-5,3.48-5.57s5.82.26,6,3.52,2,4.17,4.19,5.43c23.49,13.85,47,27.67,70.39,41.69,2.15,1.29,3.21.55,4.78-.38,9.14-5.44,18.25-10.94,27.52-16.16A5.82,5.82,0,0,0,503,520.1q.5-64.94,1.25-129.87c0-2.41-.53-3.82-2.77-5.13q-57.1-33.32-114-66.87c-2-1.15-3.37-1.31-5.39-.06-36.91,22.87-75.36,43.09-112.71,65.2-2.06,1.22-3.8,2.21-3.42,5.22.6,4.64-1.9,7.87-6.19,9s-8-.36-10-4.53c-1.86-3.83-1.35-7.59,1.91-10.45,3.55-3.11,7.6-3.51,11.3-.35,1.72,1.48,2.91,1.63,4.75.5q7.67-4.68,15.48-9.1c2-1.12,2.61-2.47,2.59-4.8-.1-12.17.06-24.33.12-36.5,0-4.39,0-8.79,0-13.66-1.22.56-1.81.79-2.36,1.1-21.56,12.23-43.07,24.54-64.72,36.61-3.18,1.77-3.87,3.87-3.86,7.16.09,36.6,0,73.19.16,109.79,0,4.06-1.33,6.17-4.73,8.15q-47.64,27.83-95.09,55.94c-2.23,1.32-4.65,2.21-4.38,5.81.37,4.81-2.32,7.83-7.07,8.74-4.31.84-7.5-1-9.51-4.75-2.14-4-1-7.5,2.18-10.3,3.61-3.18,7.71-3.15,11.36-.25,1.87,1.49,3,1.7,5,.48q48.93-29,98-57.76c2.64-1.54,3.13-3.3,3.13-6q-.09-55.5,0-111c0-3.08-.93-4.76-3.59-6.29-17.74-10.19-35.73-20-52.92-31.07-8.45-5.45-15.11-6.19-22.74.45-2,1.76-3.4,3-3.38,5.93q.2,34,0,68c0,3.35,1.27,5,4,6.62q30.33,17.82,60.49,35.92c2.08,1.24,3.78,2.12,6.3.64,3-1.77,5.15.17,6.26,2.87a4.36,4.36,0,0,1-2.76,6.06c-3,1.08-5.95.27-6.52-3.31a5.78,5.78,0,0,0-3.22-4.53Q165,425.39,134.16,406.93a5.4,5.4,0,0,0-6.36,0Q87.95,430.79,48,454.37a5.51,5.51,0,0,0-3.14,5.5q.12,48.21,0,96.43c0,2.76.68,4.45,3.25,6q39.84,23.29,79.51,46.91c2.45,1.45,4.3,1.6,6.8.08,6.39-3.89,13-7.41,19.47-11.17,75.68-43.87,151.88-86.82,228.06-129.8a5.94,5.94,0,0,0,3.21-4.51c.58-2.78,2.88-4,5.78-3.13s3.73,3.19,3.09,5.92c-.72,3-3.38,4.53-5.66,3.08-3.2-2-5.14-.45-7.54.91q-78.56,44.55-157.19,89c-3,1.67-3.69,3.58-3.69,6.74q.15,92,0,183.94a6.32,6.32,0,0,0,3.62,6.27q62.08,36.22,124.05,72.66c2.24,1.31,3.92,1.65,6.32.21q12.62-7.57,25.52-14.66c2.55-1.41,3.28-3.14,3.28-6-.06-27.84,0-55.67.05-83.5,0-1.39.55-2.93-.8-4.61-10.13,6-20.34,11.88-30.26,18.19-3.35,2.14-5.71,1.94-9,0-27-16.05-54-32.15-81.36-47.71-5.84-3.33-7.84-6.88-7.79-13.52.24-32.17-.09-64.33-.22-96.5,0-4.49-6.85-9.85-10.68-8.39-4.31,1.63-7.53.62-8.45-2.88a5,5,0,0,1,3.82-6.57c4-1,6.13,1.14,6.92,5.1.91,4.56,8.41,7.75,12.41,5.4Q297.8,550,338.23,526.24c1.84-1.08,3.43-2,4.06-4.53.77-3.1,3.77-3.79,6.51-2.6,2.58,1.13,3.5,3.55,2.32,6.28-1.32,3-4.19,4.12-6.48,2.21-2.76-2.31-4.39-.81-6.44.4q-21.93,12.91-43.85,25.83-19.07,11.22-38.1,22.37c.63,1.57,1.9,1.81,2.88,2.37,17.79,10.06,35.36,20.54,53.23,30.49,22.23,12.37,44,25.59,65.86,38.6,3.06,1.82,5.28,2,8.5.15,31.67-18.63,63.47-37.06,95.22-55.57,11.15-6.5,22.26-13.06,34.05-20-15.49-9-30.32-17.49-45.09-26.13-1.92-1.13-3.11-.11-4.51.73L389.3,593c-2,1.22-3.31,2.29-3,5.36.42,4.29-2,7.65-6.59,8.66-4.25.93-7.6-.55-9.69-4.32s-1.5-7.46,1.63-10.46c3.33-3.17,7.57-3.64,10.92-.91,2.79,2.28,4.38,1.43,6.74,0q36.12-21.74,72.29-43.37C463.4,546.87,465.52,546.18,466.86,544.15ZM385.41,262.82c0,17.28,0,33.76-.06,50.25,0,2.41,1.5,3.07,3.07,4q57,33.42,114,66.77c2.63,1.53,3.64,2.93,3.59,6-.48,28.44-.73,56.89-1.11,85.34-.2,15.16-.63,30.31-.73,45.47,0,3.23-1.05,5-3.92,6.61-9.65,5.43-19.1,11.22-29.22,17.22,15.24,8.83,29.89,17.29,44.5,25.84,2.05,1.2,3.49.15,5-.75,7.17-4.19,14.06-9,21.56-12.46,6.91-3.22,8.64-7.79,8.66-15.11.18-59.45-.3-118.9,1-178.34.07-3.44-1.39-5-4-6.56Q483,319.57,418.42,281.94C407.54,275.61,396.64,269.32,385.41,262.82ZM255.24,578.06c-.17,1.38-.31,2-.31,2.62q0,50.76-.07,101.5c0,2.53.94,3.85,3,5.07q43.52,25.39,86.91,51c1.82,1.07,3.11,1.19,4.92.09q14.92-9,30-17.88c2.26-1.32,3.1-2.86,3.07-5.58-.21-18.83-.4-37.66-.14-56.49.07-5-1.47-7.64-5.79-10.08-26.63-15-52.69-31.11-79.51-45.85C283.36,594.75,269.72,586.47,255.24,578.06ZM383.3,179.14c-1.47.61-1.95.74-2.36,1q-45.56,26.32-91.14,52.6c-2.44,1.4-2.95,3.1-2.94,5.64.09,15.14,0,30.27,0,45.4,0,10.42,0,20.84,0,31.85,1.84-.85,3.06-1.3,4.18-1.94q44.76-25.68,89.54-51.35c2.28-1.31,2.76-2.94,2.74-5.28-.08-9.16,0-18.32-.05-27.48ZM616.52,296.43c0-22.51-.06-43.83.08-65.15,0-2.74-1.4-3.74-3.33-4.88-17.89-10.54-35.79-21.06-53.58-31.78-2.27-1.36-3.67-1.1-5.74.14-12.28,7.33-24.64,14.49-37,21.71L498.2,227.42ZM286.93,370.67a13.22,13.22,0,0,0,1.81-.46c31.19-17.43,62.33-35,92.92-53.43,2.17-1.31,2.32-2.89,2.31-4.95-.05-9,0-18-.05-27V262.49c-1.74.77-2.66,1.09-3.48,1.56l-90.9,52c-1.5.86-2.65,1.77-2.64,3.81C287,336.69,286.93,353.47,286.93,370.67Zm-22.07-269a7.45,7.45,0,0,0-7.12-7.5,7.35,7.35,0,1,0-.32,14.68A7.47,7.47,0,0,0,264.86,101.67ZM95,543.36A7.29,7.29,0,0,0,102,550.8a7.38,7.38,0,1,0,.17-14.76A7.43,7.43,0,0,0,95,543.36Zm134,352.07c-.1,4.28,2.64,7.3,6.79,7.48a7.31,7.31,0,0,0,7.85-7.13,7.15,7.15,0,0,0-7.24-7.17C232,888.55,229,891.25,228.92,895.43ZM377.73,605.8a7.12,7.12,0,0,0,7.21-7.18,7,7,0,0,0-7-7.42,7.54,7.54,0,0,0-7.62,7.47A7.34,7.34,0,0,0,377.73,605.8ZM264.84,388.86a7.32,7.32,0,0,0-7.47-7.06A7.65,7.65,0,0,0,250,389a7.45,7.45,0,0,0,14.89-.13Zm479.9,113.36a7.3,7.3,0,0,0-.3,14.59,7.49,7.49,0,0,0,7.44-7.16A7.26,7.26,0,0,0,744.74,502.22Zm-.85-285.38c-4.17,0-7,2.94-7,7.23s2.84,7.14,7.1,7.13a7.18,7.18,0,0,0-.09-14.36ZM123.41,145c-.22-2.42-1.51-4-3.79-3.86A3.54,3.54,0,0,0,116,145a3.58,3.58,0,0,0,3.79,3.74C122.25,148.79,123.17,147.06,123.41,145ZM621.09,14c-3.36-.27-4.69,1.46-4.88,3.45a3.81,3.81,0,0,0,4,4.2,3.54,3.54,0,0,0,3.71-3.83A3.52,3.52,0,0,0,621.09,14ZM734.77,761c-2.13.32-3.83,1.3-3.79,3.73a3.67,3.67,0,0,0,3.73,3.87c2,0,3.32-1.4,3.49-3.5C738.4,762.68,737.11,761.4,734.77,761ZM239.23,564.75c-2.27-.11-3.42,1.25-3.47,3.62a3.48,3.48,0,0,0,3.65,3.87c2.2,0,3.69-1.24,3.63-3.78S242,564.67,239.23,564.75Zm316.84-229.9c2.52,0,3.86-1.12,3.87-3.55,0-2.13-1.08-3.48-3.29-3.52s-3.75,1-3.75,3.55C552.9,333.52,554,334.69,556.07,334.85ZM207,447c0-2.29-1.27-3.31-3.46-3.16s-3.54,1.45-3.34,3.46a3.52,3.52,0,0,0,3.65,3.38C205.91,450.55,207.07,449.16,207,447Zm184.08,49.18c-.12-2.15-1.26-3.37-3.43-3.25a2.93,2.93,0,0,0-2.93,3.26c0,2,.94,3.59,3.15,3.54S391.05,498.29,391.08,496.15ZM8.43,396.45C8.18,394.34,7.1,393,5.25,393a3.08,3.08,0,0,0-3.2,3.56,3,3,0,0,0,3.59,3.1C7.56,399.51,8.31,398,8.43,396.45Z"/><path d="M516.87,1025.86c.2-27.49.33-55,.7-82.47,0-3.59-2.22-4.52-4.44-5.81q-37.29-21.71-74.62-43.36c-6.44-3.74-12.87-7.51-20-11.68,8.45-4.84,16.29-9.38,24.17-13.85,19.1-10.82,38.23-21.56,57.28-32.45a4.85,4.85,0,0,1,5.73,0c19.06,11.21,38.25,22.21,57.35,33.35,6.31,3.68,12.41,7.74,18.75,11.35,2.54,1.45,3.24,3.15,3.23,6-.12,28.5-.08,57-.09,85.48,0,2.44-.24,4.68,2.46,6.43,2.42,1.57,2.29,4.4.28,6.51s-4.55,2-6.55-.14-2-5,.49-6.48,2.28-3.35,2.28-5.49c0-28.49,0-57,.08-85.48a5.6,5.6,0,0,0-3.08-5.56c-24.74-15-49.8-29.49-74.88-43.93-1.94-1.11-3.54-1.84-5.91-.48q-38.53,22.05-77.22,43.87a8,8,0,0,0-1.05,1.09l26.3,15.31c22.25,13,44.46,26,66.78,38.84,2.94,1.69,4.1,3.5,4.08,7-.16,27.33-.1,54.65-.12,82Zm70.87-43.79c-.41-1.84-1.54-3.14-3.36-3.12a3.1,3.1,0,0,0-3.21,3.17,3.25,3.25,0,0,0,3.52,3.39C586.47,985.36,587.46,983.89,587.74,982.07Z"/><path d="M317.87,1025.86c0-25.48,0-50.95.18-76.42,0-3.24-1.63-3.64-3.84-4.55a10.44,10.44,0,0,1-6.44-12.14,10.25,10.25,0,0,1,10.63-8,10.53,10.53,0,0,1,10.19,8.65c.85,4.35-1.29,9.37-5.76,11.1-3.47,1.34-3.7,3.41-3.68,6.44q.14,34.21.07,68.43c0,2.16-.22,4.31-.35,6.47Z"/><path d="M495.87,1025.86c-7.33-6-16-10-24.05-14.87-16.25-9.76-32.7-19.21-49-28.85-2.22-1.31-3.9-2.19-6.64-.46-3.87,2.43-7.84,1.16-10.71-2.25-2.7-3.21-3.23-7-.6-10.54,2.49-3.36,5.87-4.77,10.08-3.37,4.41,1.47,6.89,4.68,5.86,9.1-.9,3.9.87,5.26,3.63,6.87q35.08,20.5,70.12,41.14c1.56.92,3.31,1.6,4.34,3.23Zm-76.14-51.94a7.3,7.3,0,0,0-7.19-7.26c-4.6-.11-7.62,2.7-7.63,7.11a7.21,7.21,0,0,0,7.52,7.44A7.54,7.54,0,0,0,419.73,973.92Z"/><path d="M382.87,1.86q-.09,42.69-.23,85.37a6.2,6.2,0,0,0,2.05,4.7c2.1,2.2,2.18,4.9-.38,7a4.12,4.12,0,0,1-6.2-.61c-1.93-2.28-1.68-4.84.68-6.55A4.77,4.77,0,0,0,381,87.27q-.12-42.7-.11-85.41Zm-1.47,90c-2,.56-3.24,1.78-3,3.84a3,3,0,0,0,3.4,2.82,3.13,3.13,0,0,0,3.05-3.24C384.78,93.2,383.41,92.14,381.4,91.86Z"/><path d="M907.87,631.86c-4.23-.74-7.28-3.78-10.92-5.68-2.63-1.38-4.79-3.07-8.22-1.55-2.6,1.15-4.91-.58-5.64-3.4-.68-2.6.37-4.68,3-5.41s5.54-.31,6,2.71c.57,3.77,3.07,5,5.84,6.53,3.37,1.81,6.6,3.86,9.89,5.8Zm-20.18-15.07c-2.3.13-3.12,1.58-3.09,3.6a3,3,0,0,0,3,3.2,3.21,3.21,0,0,0,3.36-3.42C891,617.88,889.76,617,887.69,616.79Z"/><path d="M168.66,160.8c-.09-3.47,2.25-6.75,6.3-8.69s8.19-1.18,11.56,1.87,4.74,7.29,2.8,11.32c-1.72,3.55-.59,4.8,2.22,6.48q34,20.33,67.86,40.84c2,1.19,3.54,1.68,5.79.24,2.88-1.85,5.26-.12,6.44,2.53,1.11,2.47-.23,4.61-2.49,5.82-2.78,1.5-5.44.17-6-2.33-.82-3.37-3.28-4.37-5.62-5.78-22.33-13.46-44.7-26.84-67-40.36-2.6-1.57-4.64-2.13-7.69-.83C176,174.79,168.76,169.5,168.66,160.8Zm98.61,53c-2,0-3.21.89-3.28,2.95s1.1,3.07,3,3.2a2.76,2.76,0,0,0,3.25-2.93A2.85,2.85,0,0,0,267.27,213.83Z"/><path d="M480.4,945.07v55.27h-.1V945.07Z"/><path d="M594.29,850.74V823.4h.26v27.21Z"/><path d="M790.76,354.78c0,8.17-.08,16.33,0,24.5,0,2.58-.59,4.33-3,5.7q-21.37,12.34-42.6,24.94c-2.27,1.35-4,1.25-6.36-.11Q718.06,397.53,697,385.6c-2.62-1.48-3.19-3.29-3.17-6,.09-14.16,0-28.33,0-42.49,0-2.13.2-3.91-2.59-5.05s-3.39-4.14-1.65-6.77c1.57-2.36,4-3.09,6.51-1.38,2.9,2,3.22,5.05,1,7.3-2,2-1.84,4-1.83,6.27.09,13.83.19,27.67.11,41.5a5.88,5.88,0,0,0,3.39,5.92q20.37,11.53,40.53,23.44a4.92,4.92,0,0,0,5.82,0q20.33-12.15,40.81-24a5.09,5.09,0,0,0,3-5.08c-.1-16.5-.06-33,0-49.5,0-1.95-.3-3.3-2.29-4.43-13.59-7.68-27.07-15.54-40.61-23.31-1.78-1-3.33-2.2-5.86-.85-3,1.58-5.22-.54-6.12-3.24s.41-5,3.2-5.87c3.13-.94,5.93.77,6,3.58,0,3.55,2.25,4.26,4.41,5.51,13.09,7.56,26.14,15.19,39.32,22.59,2.79,1.57,4.07,3.17,3.95,6.54-.3,8.16-.1,16.33-.1,24.5Zm-52.31-54.92c2.35,0,3.35-1,3.43-3a3.17,3.17,0,0,0-3.29-3.56,3,3,0,0,0-3.19,3.15C735.4,298.42,736.46,299.88,738.45,299.86Z"/><path d="M611.92,680.62q0-21,0-42c0-2.51,0-4.69-2.36-6.61s-1.94-4.63.3-6.51a4.44,4.44,0,0,1,6.66.42c2,2.28,1.84,4.9-.52,6.52s-2.28,3.34-2.28,5.55q0,42.24-.11,84.49a6,6,0,0,0,3.44,6q36.23,20.52,72.35,41.23c3,1.72,4-.31,5.75-1.67a8.77,8.77,0,0,1,12.68,2.18,9,9,0,0,1-3.08,12.55c-4.45,2.46-11.54.73-12-4-.7-8-6.83-9.28-11.84-12.15q-33.09-19-66.31-37.76c-2.54-1.43-2.77-3.28-2.76-5.71C611.94,709,611.92,694.79,611.92,680.62Zm96,94.44a7.38,7.38,0,0,0-7.27-7.31,7.59,7.59,0,0,0-7.66,7,7.94,7.94,0,0,0,7.59,7.73A7.59,7.59,0,0,0,707.88,775.06ZM613,625.79c-1.78.1-3,.8-3.15,2.9-.1,2.28,1.15,3.46,3.22,3.49,1.89,0,2.95-1.17,2.92-3.18S615.15,625.91,613,625.79Z"/><path d="M465,454.9c0-13.82-.11-27.64.08-41.46,0-3.22-.84-5.07-3.69-6.72q-30.41-17.62-60.61-35.58c-2.85-1.68-4.94-2.94-8,.29-3.34,3.49-9,2.84-12.78-.34a10.8,10.8,0,0,1-2.81-12.7,10.6,10.6,0,0,1,11.61-5.78c4.81.9,8.72,4.86,8.25,9.74-.4,4.12,1.39,5.75,4.51,7.57,20.66,12.05,41.18,24.34,61.86,36.38,2.71,1.58,3.55,3.3,3.51,6.3-.4,28-.65,55.91-1,83.87,0,2.49,0,4.62,2.45,6.43s1.89,4.45-.24,6.47-4.29,1.83-6.15-.21-2.17-5.07.17-6.54c2.7-1.71,2.73-3.75,2.72-6.28,0-13.81,0-27.63,0-41.44ZM468.05,506c-.08-1.9-.93-3.1-3-3.12a2.75,2.75,0,0,0-3.13,3,2.82,2.82,0,0,0,3,3.15C466.91,509,468,508,468.05,506Z"/><path class="cls-1" d="M757.87,575.86c17.87,11.61,36.62,21.75,55,32.51,6.31,3.7,12.56,7.52,18.9,11.32,1.1-1.74.58-3.34.58-4.83,0-35,0-70,.09-105,0-3.06-.59-4.93-3.52-6.59q-46.6-26.29-93-53c-2.69-1.55-4.42-1.6-7.09,0-14.23,8.51-28.62,16.75-43,25.09"/><path class="cls-1" d="M615.37,19.86q-54.24,31.5-108.49,63c-2.2,1.28-4.21,3-6.54,3.92-3.28,1.28-3.53,3.57-3.52,6.58q.14,42.49,0,85c-.11,37.83-.33,75.66-.45,113.5,0,2-.82,4,1.92,5.58,18.09,10.34,36,20.92,54,31.42"/><path class="cls-1" d="M342.87,524.86c-13.28,6.54-25.56,14.84-38.45,22.08-15.7,8.82-31,18.37-46.61,27.31-2.93,1.67-4,3.82-3.89,6.61.91,34.33.26,68.66.44,103,0,1.82.59,2.56,2.43,3.64,28.79,16.8,57.4,33.89,86.11,50.81,2.71,1.6,5.08,2,8.62-.22,10.3-6.3,20.35-13.11,31.35-18.23"/><path class="cls-1" d="M681.87,537.86c-11.68,5.41-22.33,12.67-33.45,19.07-22.48,12.92-44.72,26.25-67,39.43-7,4.14-13.85,8.63-21.08,12.35-3,1.55-3.46,3.31-3.46,6.15q.07,69.5-.07,139c0,4,1.29,6.18,4.58,8q39.57,22.4,79,45c13.17,7.5,26.45,14.82,39.44,22.61,3.77,2.27,6.12,2.41,10.16,0,39.18-22.94,78.59-45.47,117.86-68.24,2.34-1.35,3.75-1.34,6.09,0,23.76,13.63,47.65,27,71.42,40.63,3.23,1.85,5.91,2,9.06,0,4.22-2.69,8.64-5,13-7.54"/><path class="cls-1" d="M116.87,76.86q30.25,17.49,60.5,35,76.76,44.49,153.47,89.05c1.81,1.05,4.26,1.5,5,4"/><path class="cls-1" d="M556.87,758.86c-16.16,9.5-32.27,19.1-48.51,28.48C471.9,808.4,435.26,829.16,399,850.55c-6.3,3.71-10.63,4.11-16.73,0-9.75-6.61-20.22-12.16-30.39-18.16"/><path class="cls-1" d="M684.87,475.36c-21.33-12.17-42.58-24.49-64.07-36.37-4.11-2.28-5.06-4.85-5-9.13.33-27,.14-54,.65-81,.75-39,.94-78,1-117,0-2.77-.65-4.63-3.05-6-18.36-10.63-36.73-21.23-54.95-32.09-2.15-1.28-3-1.27-5.13,0-18.89,11.19-37.94,22.11-56.94,33.11"/><path class="cls-1" d="M218.87,562.36c1.06,1.58.47,3.34.47,5q.06,91.74-.08,183.5c0,3.26,1.1,5,3.61,6.5q56.26,32.75,112.48,65.53c4.91,2.87,10.14,5.25,14.52,9"/><path class="cls-1" d="M419.37,882.36q29.25,17,58.51,34,17.44,10.08,35,20c4,2.24,5.86,5,5.61,10-1.33,26.32-.37,52.66-.63,79"/><path class="cls-1" d="M383.87,178.86c0,26-.12,52,.05,78,.12,18.83.81,37.66.81,56.5,0,4.23,3.23,4.21,5.21,5.39q37.6,22.5,75.44,44.59c12.62,7.41,25.32,14.69,38,22,1.2.69,1.85,1,1.69,3-.52,6.63-.15,13.32-.2,20-.15,20-.26,40-.52,60-.23,17.5-.69,35-.93,52.5,0,2.75-.91,4.11-3.48,5.62q-50.65,29.73-101.06,59.89c-4.56,2.72-9,5.65-13.51,8.49"/><path class="cls-1" d="M420.87,882.36c11.5-6.67,23-13.3,34.5-20,14.44-8.44,29.35-16.05,43.54-24.94a6.08,6.08,0,0,1,7-.15c25.13,14.9,50.59,29.24,75.51,44.49,2.53,1.54,3,3.08,3,5.61q-.07,45.24,0,90.5"/><path class="cls-1" d="M612.87,634.36c0,29.16.06,58.33-.07,87.5,0,3.73,1.16,5.71,4.52,7.6,25.1,14.14,50,28.56,75,42.9"/><path class="cls-1" d="M119.87,150.36q0,42.49,0,85c0,2.95.39,4.84,3.46,6.63,24.47,14.27,48.74,28.88,73.1,43.32a2.66,2.66,0,0,1,1.64,2.2c-11.11,6.39-22.53,12.64-33.61,19.44-5.87,3.6-12.36,6.23-17.56,10.91"/><path class="cls-1" d="M518.37,571.86c10.17-6.17,20.2-12.58,30.61-18.31,2.3-1.27,2.39-2.37,2.39-4.19,0-25.67-.06-51.34,0-77q.15-47,.5-94a31.88,31.88,0,0,1,.49-4c1.29-10-1.09-16.61-11.3-22.36-51-28.72-101.2-58.65-151.72-88.11a35.71,35.71,0,0,0-5-2"/><path class="cls-1" d="M385.87,466.86q-41,23.25-82,46.5-42.27,24-84.5,48-43.06,24.63-86,49.46a4.79,4.79,0,0,1-5,0c-25.52-15.14-50.81-30.68-76.65-45.24-6.9-3.88-8.07-8.3-8-15.24.31-29.67.18-59.34.08-89,0-3.76.74-6,4.47-8.16C71.13,440,93.7,426.34,116.38,412.87c4.62-2.75,9.33-5.35,14-8"/><path class="cls-1" d="M214.37,357.86q-32.75-19.26-65.5-38.49c-1.87-1.09-3.68-2.33-5.6.41-.88,1.27-2.82,2-4.41,2.54-7.23,2.64-8.41,7.75-8.2,15,.61,21,.24,42,.18,63,0,2.34.15,4.17,2.51,5.54q33.32,19.39,66.52,39"/><path class="cls-1" d="M632.87,567.36c0,16.16.13,32.33-.08,48.5-.06,4.28.91,6.83,5,9.13,24.48,13.73,48.74,27.86,73.07,41.87q11.26,6.48,22.5,13"/><path class="cls-1" d="M742.87,299.36c15,8.66,29.92,17.48,45.1,25.82,2.14,1.18,1.87,2.25,1.88,3.68,0,17,0,34,0,51,0,2.29-.77,3.37-3,4.62-14.13,8.09-28.08,16.52-42.05,24.9-2.09,1.25-3.42.89-5.59-.4q-20.79-12.36-42-24c-2.35-1.29-2.44-2.65-2.43-4.63,0-4.17,0-8.34,0-12.5-.12-14.52.66-29.06-1.5-43.5"/><path class="cls-1" d="M517.87,573.36c1.06,1.58.47,3.34.47,5q.06,64.74,0,129.5a90.09,90.09,0,0,1-.52,10c-.39,3.6,1,5.08,4.54,4.51"/><path class="cls-1" d="M144.87,317.86c-8.13-6.62-18.12-10.35-26.41-16.62-6.6-5-11.6-3.52-18.19.44C69.34,320.25,38,338.19,6.86,356.33c-.37.22-1,0-1.49,0"/><path class="cls-1" d="M516.37,572.86q-54,31.5-108,63c-8.52,5-17,10-25.51,15"/><path class="cls-1" d="M464.87,501.36c.83-.51.49-1.32.49-2q.27-43.5.51-87c0-2.24-.12-3.62-2.88-5.2-22.37-12.81-44.45-26.14-66.62-39.3"/><path class="cls-1" d="M442.37,74.86q0,32.25,0,64.5c0,2.83-.64,4.43-3.45,6.13-32.64,19.81-66.15,38.1-99.09,57.36q-24.94,14.58-50,29c-2,1.16-3.58,2.06-3.57,5q.18,66.24.1,132.5c0,.68-.34,1.49.48,2"/><path class="cls-1" d="M243.87,570.36c-.05-5.58-1.87-7.19-6-6.09-3.4.9-3.53,3.37-2.84,5.54.88,2.77,3.79,4.88,6.21,2.86,2.68-2.24,4-1.1,6.17.16,41.06,24,82.84,46.8,123.55,71.42a12.36,12.36,0,0,0,2.45,1.57c9.19,2.8,10.61,9.31,10.18,18-.72,14.63-.2,29.32-.2,44v11.5"/><path class="cls-1" d="M214.37,461.86c0,5,1.19,10.39-.3,14.9-1.83,5.57-8.64,6.65-13.29,9.44-28.31,17-56.91,33.48-85.39,50.18-1.75,1-3.35,2.31-5,3.48"/><path class="cls-1" d="M263.87,106.36c2.62-6,1.85-9.67-2.5-12-3.63-2-8.93-1-10.91,2.55-1.84,3.28-1.83,6.84.91,10s6.75,4.16,9.85,1.8c2.74-2.09,4-1.09,6.17.16q56,32.58,112,65c1.48.87,3,1.67,4.49,2.51"/><path class="cls-1" d="M736.37,227.86C697.71,250.19,659,272.43,620.47,295c-3.39,2-5.29,1.53-8.12-.13q-33.44-19.59-67-39l-48-28"/><path class="cls-1" d="M285.37,317.86q-27.5,15.5-55,31c-3.38,1.91-6.47,4.56-10,5.85-5.43,1.95-6.1,5.53-6.06,10.64.22,30.66.08,61.33.19,92,0,1.35-3.36,4.19.35,4"/><path class="cls-1" d="M384.87,315.86c-30.89,18.48-62.14,36.33-93.55,53.9-8.86,5-17.13,10.95-26.45,15.1"/><path class="cls-1" d="M383.37,261.36q-35.75,20.49-71.49,41c-8.36,4.8-16.67,9.66-25,14.5"/><path class="cls-1" d="M317.87,935.36c.85,1.77.49,3.66.49,5.5q0,42.24,0,84.5"/><path class="cls-1" d="M737.37,505.36c-15.68-9.5-31.68-16.5-47.68-27.5-2-1-5-2-7-1-16,7-30,19-46,26-7,10,0,23-4.4,33.56"/><path class="cls-1" d="M418.87,978.36c2.57-5.83,1.47-9.58-3.5-12-3.47-1.7-8.5.31-10.52,4s-.81,7,1.63,9.41c2.68,2.67,7,3.61,9.71.92s3.74-1,5.7.16q37.71,22.32,75.5,44.51c.24.15.65,0,1,0"/><path class="cls-1" d="M391.87,498.36c0-2.33.73-5.18-2.51-5.92-1.69-.39-3.7-.55-5,1.4-1.17,1.75-.44,3.51.12,5,.83,2.17,3.11,1.5,4.9,1.52,1.35,0,1.69-2.1,4.1-.64,24.86,15.06,50.31,29.15,74.9,44.66"/><path class="cls-1" d="M187.37,169.86l55.5,33.5c5.51,3.32,11.06,6.58,16.48,10,1.8,1.15,4,1.83,4.22,4.94.21,2.58,2.89,3.16,5.29,2,1.55-.75,3.21-1.64,2-4-1.06-2.1-1.72-4.39-5.06-3.1a9.88,9.88,0,0,0-2.46,1.61"/><path class="cls-1" d="M733.62,594.36c1.65,9.29.71,18.67.68,28-.12,32.83.24,65.66-.21,98.5-.17,13,0,26,.28,39"/><path class="cls-1" d="M480.37,943.36v59"/><path class="cls-1" d="M381.87,2.36v88"/><path class="cls-1" d="M435.37,687.86q-22,13.25-44,26.51c-2.37,1.43-4.67,3-7,4.49"/><path class="cls-1" d="M470.37,544.86l46,27"/><path class="cls-1" d="M243.37,891.86c-5.78-5.58-11.68-5.29-14.55.47a7.55,7.55,0,0,0,1.66,9.42,7.7,7.7,0,0,0,8.87,1.55,8.23,8.23,0,0,0,4.9-8.43,22.2,22.2,0,0,0-.38-2.51"/><path class="cls-1" d="M264.37,384.86c-2.73-3-5.52-5.28-10-3.07-3.31,1.63-5.18,3.81-5,7.57a8,8,0,0,0,16,.49,23.84,23.84,0,0,0-.46-4.49"/><path class="cls-1" d="M692.37,772.86c.1,8.76,5.26,12.5,12,9.09,3.26-1.63,3.87-4,4-7.09.14-3.79-2.22-6-5.08-7.39a6.43,6.43,0,0,0-7.94,1.39c-.87,1-1.67,2-2.51,3"/><path class="cls-1" d="M737.37,505.86c-1.73,4.92.27,10,4.5,11.5,3.72,1.28,9.4-1.7,10.5-5.5a8.67,8.67,0,0,0-6.5-10.48c-3.37-.62-5.63,1.61-8,3.48"/><path class="cls-1" d="M1.37,323.36c3-.65,3.61.51,3.59,3.5-.16,21.5-.09,43-.09,64.5"/><path class="cls-1" d="M595.3,805.86v44.75"/><path class="cls-1" d="M109.87,539.86c-4.26-4.47-8.51-5.71-12-3.5a8,8,0,0,0-3,10c1.89,4.16,5.59,6.11,9.5,5,4.63-1.31,6.59-5.24,5.5-11"/><path class="cls-1" d="M384.87,594.86c-2.62-4.45-6.52-5.53-11-3.43a7.62,7.62,0,0,0-3.54,10.43c1.87,3.7,6.55,5.81,10,4.5,4.31-1.63,6-5.85,4.5-11"/><path class="cls-1" d="M744.37,215.86c5.62,1.66,8.19,4.79,7.47,9.49-.59,3.89-2.92,6.19-7,6.51-4.72.37-8.06-2.05-9-6.5-.75-3.61,2-7.72,6-9,.65-.2,1.33-.34,2-.5"/><path class="cls-1" d="M633.37,536.86v28.5"/><path class="cls-1" d="M733.87,760.36c-3.89,1.09-4.47,3.92-2.89,6.94,1.18,2.24,3.18,2.82,6,1.21,2.32-1.33,1.76-2.94,1.91-4.65.25-3-2.06-3-4-3.5"/><path class="cls-1" d="M552.37,329.36c-.92,2.73-.79,4.85,2.48,6.06,2.43.9,4.26.22,5.44-1.61a4.28,4.28,0,0,0-.46-5.41c-2.17-2.2-4.62-2.08-7,0"/><path class="cls-1" d="M595.87,782.36c-1.15,8-.17,16-.5,24"/><path class="cls-1" d="M891.87,622.36c0-3.13.24-6.31-4.5-6-3.14.17-3.74,2-3.47,4.54s2.59,4.48,4.36,3.32c4.27-2.83,7.11.19,10,1.8s5.9,3.81,9.06,5.38"/><path class="cls-1" d="M199.87,445.36c-1.32,3.16,0,5.21,3,5.92,2.26.53,4.34-.33,5-2.93a4.46,4.46,0,0,0-2.52-5.38,3.94,3.94,0,0,0-5,1.89"/><path class="cls-1" d="M742.37,298.36c1.61-3.3-.71-4.89-3-5.89-1.61-.69-3.52.7-4.33,2-1,1.48-1,3.27.79,5,2.72,2.57,4.55,1.27,6.58-.58"/><path class="cls-1" d="M381.37,90.86c-2.27.91-4.35,2.37-3.83,5a4.12,4.12,0,0,0,3.33,3.57,3.8,3.8,0,0,0,3.95-2.07c.88-1.46,1.14-3.14-.45-4.47-.82-.69-1.66-1.34-2.5-2"/><path class="cls-1" d="M464.37,501.86c-2.68.66-3.18,2.51-3,5s2,2.51,3.56,3c2.08.61,3.45-1.31,3.84-2.51,1-3.05-.84-4.84-3.86-5.45"/><path class="cls-1" d="M583.87,978.36c-2.43.51-4,2-3.4,4.48.36,1.58,1.08,3.31,3.4,3.58a4,4,0,0,0,4.35-2.61c.83-2.59-.26-4.84-3.35-5.45"/><path class="cls-1" d="M119.87,149.86c3.28-1.28,5.84-2.69,3.58-7-1.56-3-3.81-3.13-6-1.86s-3.59,3.75-1.51,6.36c.87,1.07,2.29,1.7,3.45,2.54"/><path class="cls-1" d="M5.37,391.86c2.88,1.24,5.09,3.18,3.4,6.44-1.17,2.25-3.29,3.09-5.94,1.12s-2.18-3.71,2-7.56"/><path class="cls-1" d="M620.37,12.86c2.39,1.3,5.54,2,4,6-.75,2-1.68,3.46-4,3.49a4.79,4.79,0,0,1-4.46-2.53c-1.08-2-.55-3.81.94-5.51.85-1,2-1,3-1.47"/><path class="cls-1" d="M613.37,624.86c1.37.76,3.24,1.11,3.46,3,.25,2.09-.05,3.88-2.41,5.08-2.84,1.45-4.08-.73-4.91-2.16a3.54,3.54,0,0,1,1.87-5.42c.48-.2,1-.34,1.49-.5"/><path class="cls-1" d="M389.87,460.36c-.16,1.66.45,3.41-.5,5"/><line class="cls-1" x1="442.41" y1="74.43" x2="442.37" y2="77.64"/><path class="cls-1" d="M442.39,1v99.88"/><path class="cls-1" d="M382.87,716.71v44.75"/></svg>